<mxfile host="app.diagrams.net" modified="2024-05-13T17:29:59.723Z" agent="Mozilla/5.0 (Macintosh; Intel Mac OS X 10_15_7) AppleWebKit/537.36 (KHTML, like Gecko) Chrome/124.0.0.0 Safari/537.36" version="24.4.0" etag="9caYCbNom959po1SAZUn" type="github">
  <diagram name="第 1 页" id="lOLDK4K_w8I82eyHwgFO">
    <mxGraphModel>
      <root>
        <mxCell id="0" />
        <mxCell id="1" parent="0" />
      </root>
    </mxGraphModel>
  </diagram>
</mxfile>
